<svg width="70" height="70" viewBox="0 0 70 70" fill="none" xmlns="http://www.w3.org/2000/svg">
<path d="M9.47517 6.56248C7.06767 5.41248 4.42267 7.61248 5.11017 10.19L10.1502 29.0225C10.2765 29.4958 10.5391 29.9216 10.9053 30.2469C11.2715 30.5722 11.7253 30.7828 12.2102 30.8525L36.9202 34.3825C37.6352 34.4825 37.6352 35.5175 36.9202 35.62L12.2127 39.1475C11.7278 39.2171 11.274 39.4277 10.9078 39.7531C10.5416 40.0784 10.279 40.5042 10.1527 40.9775L5.11017 59.82C4.42267 62.395 7.06767 64.595 9.47517 63.4475L63.2202 37.825C65.5927 36.695 65.5927 33.315 63.2202 32.1825L9.47517 6.56248Z" fill="#888888"/>
</svg>
