<svg width="60" height="60" viewBox="0 0 60 60" fill="none" xmlns="http://www.w3.org/2000/svg">
<path d="M11.25 30.3125C9.5 30.3125 8.02083 29.7083 6.8125 28.5C5.60417 27.2917 5 25.8125 5 24.0625C5 22.3125 5.60417 20.8333 6.8125 19.625C8.02083 18.4167 9.5 17.8125 11.25 17.8125C13 17.8125 14.4792 18.4167 15.6875 19.625C16.8958 20.8333 17.5 22.3125 17.5 24.0625C17.5 25.8125 16.8958 27.2917 15.6875 28.5C14.4792 29.7083 13 30.3125 11.25 30.3125ZM22.5 20.3125C20.75 20.3125 19.2708 19.7083 18.0625 18.5C16.8542 17.2917 16.25 15.8125 16.25 14.0625C16.25 12.3125 16.8542 10.8333 18.0625 9.625C19.2708 8.41667 20.75 7.8125 22.5 7.8125C24.25 7.8125 25.7292 8.41667 26.9375 9.625C28.1458 10.8333 28.75 12.3125 28.75 14.0625C28.75 15.8125 28.1458 17.2917 26.9375 18.5C25.7292 19.7083 24.25 20.3125 22.5 20.3125ZM37.5 20.3125C35.75 20.3125 34.2708 19.7083 33.0625 18.5C31.8542 17.2917 31.25 15.8125 31.25 14.0625C31.25 12.3125 31.8542 10.8333 33.0625 9.625C34.2708 8.41667 35.75 7.8125 37.5 7.8125C39.25 7.8125 40.7292 8.41667 41.9375 9.625C43.1458 10.8333 43.75 12.3125 43.75 14.0625C43.75 15.8125 43.1458 17.2917 41.9375 18.5C40.7292 19.7083 39.25 20.3125 37.5 20.3125ZM48.75 30.3125C47 30.3125 45.5208 29.7083 44.3125 28.5C43.1042 27.2917 42.5 25.8125 42.5 24.0625C42.5 22.3125 43.1042 20.8333 44.3125 19.625C45.5208 18.4167 47 17.8125 48.75 17.8125C50.5 17.8125 51.9792 18.4167 53.1875 19.625C54.3958 20.8333 55 22.3125 55 24.0625C55 25.8125 54.3958 27.2917 53.1875 28.5C51.9792 29.7083 50.5 30.3125 48.75 30.3125ZM16.625 55.3125C14.75 55.3125 13.1767 54.5933 11.905 53.155C10.6333 51.7167 9.99833 50.02 10 48.065C10 45.8983 10.74 44.0025 12.22 42.3775C13.7 40.7525 15.1683 39.1483 16.625 37.565C17.8333 36.2733 18.875 34.8675 19.75 33.3475C20.625 31.8275 21.6667 30.4 22.875 29.065C23.7917 27.9817 24.8542 27.0858 26.0625 26.3775C27.2708 25.6692 28.5833 25.3142 30 25.3125C31.4167 25.3125 32.7292 25.6458 33.9375 26.3125C35.1458 26.9792 36.2083 27.8542 37.125 28.9375C38.2917 30.2708 39.3233 31.7083 40.22 33.25C41.1167 34.7917 42.1683 36.2292 43.375 37.5625C44.8333 39.1458 46.3017 40.75 47.78 42.375C49.2583 44 49.9983 45.8958 50 48.0625C50 50.0208 49.3642 51.7192 48.0925 53.1575C46.8208 54.5958 45.2483 55.3142 43.375 55.3125C41.125 55.3125 38.8958 55.125 36.6875 54.75C34.4792 54.375 32.25 54.1875 30 54.1875C27.75 54.1875 25.5208 54.375 23.3125 54.75C21.1042 55.125 18.875 55.3125 16.625 55.3125Z" fill="#999999"/>
</svg>
