<svg width="48" height="48" viewBox="0 0 48 48" fill="none" xmlns="http://www.w3.org/2000/svg">
<path d="M24 13.8C24 15.8687 23.1782 17.8526 21.7154 19.3154C20.2526 20.7782 18.2687 21.6 16.2 21.6C14.1313 21.6 12.1473 20.7782 10.6845 19.3154C9.22176 17.8526 8.39998 15.8687 8.39998 13.8C8.39998 11.7313 9.22176 9.74735 10.6845 8.28457C12.1473 6.82178 14.1313 6 16.2 6C18.2687 6 20.2526 6.82178 21.7154 8.28457C23.1782 9.74735 24 11.7313 24 13.8ZM34.8 21.6C36.3913 21.6 37.9174 20.9679 39.0426 19.8426C40.1678 18.7174 40.8 17.1913 40.8 15.6C40.8 14.0087 40.1678 12.4826 39.0426 11.3574C37.9174 10.2321 36.3913 9.6 34.8 9.6C33.2087 9.6 31.6826 10.2321 30.5573 11.3574C29.4321 12.4826 28.8 14.0087 28.8 15.6C28.8 17.1913 29.4321 18.7174 30.5573 19.8426C31.6826 20.9679 33.2087 21.6 34.8 21.6ZM26.3832 24.6312C24.8854 25.8686 23.6798 27.422 22.8529 29.18C22.0259 30.938 21.5981 32.8572 21.6 34.8C21.6 35.748 21.7008 36.672 21.8904 37.5672C20.3592 38.0832 18.4872 38.4 16.2 38.4C3.59998 38.4 3.59998 28.8 3.59998 28.8C3.59998 27.527 4.10569 26.3061 5.00586 25.4059C5.90604 24.5057 7.12694 24 8.39998 24H24C24.8358 23.9993 25.6573 24.2169 26.3832 24.6312ZM34.8 45.6C37.1693 45.5993 39.4725 44.8194 41.355 43.3807C43.2374 41.9419 44.5944 39.9241 45.217 37.6381C45.8396 35.352 45.6932 32.9247 44.8004 30.7301C43.9076 28.5355 42.3178 26.6954 40.2761 25.4933C38.2344 24.2912 35.8541 23.7939 33.5019 24.0779C31.1497 24.3619 28.9562 25.4115 27.2593 27.065C25.5624 28.7186 24.4564 30.8842 24.1116 33.2282C23.7668 35.5723 24.2023 37.9647 25.3512 40.0368L24.0456 44.3304C23.9949 44.5004 23.9912 44.6809 24.0347 44.8528C24.0782 45.0248 24.1674 45.1817 24.2928 45.3072C24.4182 45.4326 24.5752 45.5218 24.7472 45.5653C24.9191 45.6088 25.0996 45.605 25.2696 45.5544L29.5656 44.2488C31.1668 45.1376 32.9686 45.6027 34.8 45.6ZM28.8 32.4C28.8 32.0817 28.9264 31.7765 29.1514 31.5515C29.3765 31.3264 29.6817 31.2 30 31.2H39.6C39.9182 31.2 40.2235 31.3264 40.4485 31.5515C40.6735 31.7765 40.8 32.0817 40.8 32.4C40.8 32.7183 40.6735 33.0235 40.4485 33.2485C40.2235 33.4736 39.9182 33.6 39.6 33.6H30C29.6817 33.6 29.3765 33.4736 29.1514 33.2485C28.9264 33.0235 28.8 32.7183 28.8 32.4ZM30 38.4C29.6817 38.4 29.3765 38.2736 29.1514 38.0485C28.9264 37.8235 28.8 37.5183 28.8 37.2C28.8 36.8817 28.9264 36.5765 29.1514 36.3515C29.3765 36.1264 29.6817 36 30 36H34.8C35.1182 36 35.4235 36.1264 35.6485 36.3515C35.8735 36.5765 36 36.8817 36 37.2C36 37.5183 35.8735 37.8235 35.6485 38.0485C35.4235 38.2736 35.1182 38.4 34.8 38.4H30Z" fill="#888888"/>
</svg>
