<svg width="60" height="60" viewBox="0 0 60 60" fill="none" xmlns="http://www.w3.org/2000/svg">
<path fill-rule="evenodd" clip-rule="evenodd" d="M26.2498 3C24.0618 3 21.9633 3.86919 20.4162 5.41637C18.869 6.96354 17.9998 9.06196 17.9998 11.25V12.579C15.6266 12.8079 13.2606 13.106 10.9048 13.473C10.6085 13.5134 10.3233 13.6124 10.0657 13.7642C9.80818 13.9161 9.58347 14.1177 9.40474 14.3574C9.22602 14.5971 9.09685 14.87 9.0248 15.1602C8.95275 15.4504 8.93926 15.752 8.98511 16.0475C9.03097 16.3429 9.13525 16.6263 9.29186 16.881C9.44847 17.1357 9.65427 17.3566 9.89724 17.5308C10.1402 17.7051 10.4155 17.8291 10.7069 17.8958C10.9984 17.9624 11.3002 17.9703 11.5948 17.919L12.0418 17.853L14.5648 49.407C14.73 51.4746 15.6679 53.4041 17.1918 54.8112C18.7156 56.2183 20.7136 56.9998 22.7878 57H37.2088C39.283 57.0006 41.2813 56.2199 42.8058 54.8133C44.3302 53.4067 45.2689 51.4776 45.4348 49.41L47.9578 17.85L48.4048 17.919C48.9889 17.9986 49.5809 17.8457 50.0535 17.4933C50.5261 17.141 50.8415 16.6172 50.9319 16.0347C51.0223 15.4521 50.8805 14.8574 50.5369 14.3783C50.1934 13.8993 49.6755 13.5742 49.0948 13.473C46.7389 13.1063 44.3729 12.8082 41.9998 12.579V11.25C41.9998 9.06196 41.1306 6.96354 39.5834 5.41637C38.0362 3.86919 35.9378 3 33.7498 3H26.2498ZM29.9998 12C32.5198 12 35.0188 12.075 37.4998 12.225V11.25C37.4998 9.18 35.8198 7.5 33.7498 7.5H26.2498C24.1798 7.5 22.4998 9.18 22.4998 11.25V12.225C24.9808 12.075 27.4798 12 29.9998 12ZM25.7398 23.16C25.7159 22.5633 25.456 22.0004 25.0171 21.5954C24.5783 21.1903 23.9965 20.9761 23.3998 21C22.8031 21.0239 22.2402 21.2838 21.8352 21.7227C21.4301 22.1615 21.2159 22.7433 21.2398 23.34L22.1398 45.84C22.1516 46.1355 22.2215 46.4257 22.3455 46.6942C22.4695 46.9626 22.6451 47.2041 22.8624 47.4046C23.0797 47.6052 23.3344 47.761 23.6119 47.8632C23.8894 47.9653 24.1843 48.0118 24.4798 48C24.7753 47.9882 25.0655 47.9183 25.334 47.7943C25.6024 47.6703 25.8438 47.4946 26.0444 47.2774C26.245 47.0601 26.4008 46.8054 26.503 46.5279C26.6051 46.2504 26.6516 45.9555 26.6398 45.66L25.7398 23.16ZM38.7598 23.34C38.7716 23.0445 38.7251 22.7496 38.623 22.4721C38.5208 22.1946 38.365 21.9399 38.1644 21.7227C37.9638 21.5054 37.7224 21.3297 37.454 21.2057C37.1855 21.0817 36.8953 21.0118 36.5998 21C36.0031 20.9761 35.4213 21.1903 34.9824 21.5954C34.5436 22.0004 34.2837 22.5633 34.2598 23.16L33.3598 45.66C33.348 45.9555 33.3945 46.2504 33.4966 46.5279C33.5988 46.8054 33.7546 47.0601 33.9552 47.2774C34.1557 47.4946 34.3971 47.6703 34.6656 47.7943C34.9341 47.9183 35.2243 47.9882 35.5198 48C35.8153 48.0118 36.1102 47.9653 36.3877 47.8632C36.6652 47.761 36.9199 47.6052 37.1371 47.4046C37.3544 47.2041 37.5301 46.9626 37.6541 46.6942C37.7781 46.4257 37.848 46.1355 37.8598 45.84L38.7598 23.34Z" fill="#888888"/>
</svg>
